<svg xmlns="http://www.w3.org/2000/svg" version="1.1" xmlns:xlink="http://www.w3.org/1999/xlink" xmlns:svgjs="http://svgjs.dev/svgjs" width="100%" height="100%" viewBox="0 0 1000 600"><rect width="1000" height="600" x="0" y="0" fill="#ffffff"/><g><rect width="333.3333333333333" height="333.3333333333333" rx="13.333333333333334" ry="13.333333333333334" y="172.95179059689121" fill="#2cb1bc" transform="matrix(0.8292998773462241,0,0,0.8292998773462243,0,18.354463575210644)" x="150.72959899902344"/><path d="M275.86849744460295 347.0779048471236L275.86849744460295 347.0779048471236Q264.49812501446576 348.65939549687886 257.0269450483804 348.65939549687886L257.0269450483804 348.65939549687886Q254.46383951257013 348.65939549687886 254.46383951257013 346.69616572476883L254.46383951257013 346.69616572476883Q254.46383951257013 342.1698304168485 260.6534667107503 337.17995474606886Q266.84309390893054 332.16281199512105 280.776571874878 328.4272220120784L280.776571874878 328.4272220120784Q287.075267393731 306.0409491939905 295.11905604334845 287.3902663589454L295.11905604334845 287.3902663589454Q275.48675832224825 288.3718812450004 262.9166343647105 300.36939651900605L262.9166343647105 300.36939651900605Q259.7809201453681 303.50511073834844 257.8176903732581 305.27747094928105Q255.85446060114805 307.0225640800455 254.38203827206553 307.0225640800455Q252.909615942983 307.0225640800455 251.5189948544051 304.6775951855808Q250.15564084599538 302.33262629111607 250.15564084599538 298.406166746896L250.15564084599538 298.406166746896Q250.34651040717273 283.272937253548 270.5786838919732 273.8657945955208Q290.7835902966055 264.4313848573254 320.4501735196013 264.6222544185028L320.4501735196013 264.6222544185028L379.34706668290187 265.60386930455775Q384.63688023553163 265.60386930455775 384.63688023553163 269.72119840995515L384.63688023553163 269.72119840995515Q384.63688023553163 270.9209499373558 383.0553895857763 273.94759583602536Q381.50116601618925 277.0015088148632 380.3286815689569 280.5189621565603L380.3286815689569 280.5189621565603Q377.76557603314654 287.6084030002909 369.3127811810062 287.6084030002909L369.3127811810062 287.6084030002909L363.0413527423214 287.6084030002909L336.9194899411909 287.3902663589454L321.81352752801104 287.3902663589454Q320.23203687825577 298.59703630807337 312.37911778981567 323.92815378432624L312.37911778981567 323.92815378432624L348.31712945149627 324.50076246785835Q351.45284367083866 324.50076246785835 351.45284367083866 328.236352450901L351.45284367083866 328.236352450901Q351.45284367083866 329.40883689813336 350.47122878478365 332.3536815562984Q349.48961389872863 335.29852621446344 348.69886857385103 338.4342404338058L348.69886857385103 338.4342404338058Q347.1446450042639 344.92380551383616 342.0457010128115 344.92380551383616L342.0457010128115 344.92380551383616L312.1882482286383 343.56045150542644L309.6524097729962 343.56045150542644Q308.4526582455956 343.56045150542644 306.89843467600855 343.7513210666038L306.89843467600855 343.7513210666038Q296.6732796129355 381.2435562978715 296.6732796129355 403.0299533522591L296.6732796129355 403.0299533522591Q296.6732796129355 414.61846242374185 274.09613723367033 414.61846242374185L274.09613723367033 414.61846242374185Q269.18806280339527 414.61846242374185 268.31551623801306 409.60131967279403Q267.4429696726308 404.61144400201437 267.4429696726308 396.34951871105136L267.4429696726308 396.34951871105136Q267.4429696726308 378.68045076206124 275.86849744460295 347.0779048471236Z " fill="#ffffff" transform="matrix(0.8292998773462241,0,0,0.8292998773462243,0,18.354463575210644)"/><path d="M591.4728524428492 351.1971869248876L591.4728524428492 351.1971869248876Q580.826043932211 352.6780379887174 573.8302992513599 352.6780379887174L573.8302992513599 352.6780379887174Q571.4302992513599 352.6780379887174 571.4302992513599 350.83974011637696L571.4302992513599 350.83974011637696Q571.4302992513599 346.60144224403655 577.2260439322109 341.92910181850465Q583.021788613062 337.2312294780791 596.0685971237003 333.73335713765357L596.0685971237003 333.73335713765357Q601.9664694641258 312.771655009994 609.4983843577429 295.30782522275996L609.4983843577429 295.30782522275996Q591.1154056343386 296.22697415893015 579.3451928683812 307.46101671212165L579.3451928683812 307.46101671212165Q576.4090226556152 310.3971869248876 574.5707247832747 312.0567613929727Q572.7324269109344 313.6908039461642 571.353703506679 313.6908039461642Q569.9749801024236 313.6908039461642 568.6728524428493 311.49505926531316Q567.3962566981684 309.2993145844621 567.3962566981684 305.6227188397812L567.3962566981684 305.6227188397812Q567.5749801024238 291.45250607382377 586.5196609534876 282.6439954355259Q605.4388098896577 273.8099528823344 633.217533293913 273.98867628658974L633.217533293913 273.98867628658974L688.3664694641258 274.9078252227599Q693.3196609534874 274.9078252227599 693.3196609534874 278.7631443716961L693.3196609534874 278.7631443716961Q693.3196609534874 279.88654862701526 691.8388098896577 282.7205911802068Q690.3834907407216 285.5801656482919 689.2856184002961 288.87378266956847L689.2856184002961 288.87378266956847Q686.885618400296 295.51208054190886 678.9707247832747 295.51208054190886L678.9707247832747 295.51208054190886L673.0983843577429 295.51208054190886L648.6388098896578 295.30782522275996L634.4941290385939 295.30782522275996Q633.0132779747642 305.80144224403654 625.6600864854024 329.5205911802068L625.6600864854024 329.5205911802068L659.3111503151897 330.0567613929727Q662.2473205279556 330.0567613929727 662.2473205279556 333.55463373339825L662.2473205279556 333.55463373339825Q662.2473205279556 334.6525060738238 661.3281715917853 337.40995288233444Q660.4090226556152 340.16739969084506 659.6685971237002 343.103569903611L659.6685971237002 343.103569903611Q658.2132779747642 349.18016564829185 653.4388098896577 349.18016564829185L653.4388098896577 349.18016564829185L625.481363081147 347.903569903611L623.1068949960406 347.903569903611Q621.9834907407215 347.903569903611 620.5281715917854 348.08229330786634L620.5281715917854 348.08229330786634Q610.953703506679 383.1886762865897 610.953703506679 403.5886762865897L610.953703506679 403.5886762865897Q610.953703506679 414.439740116377 589.8132779747641 414.439740116377L589.8132779747641 414.439740116377Q585.217533293913 414.439740116377 584.4005120173173 409.74186777595145Q583.5834907407216 405.06952735041955 583.5834907407216 397.3333571376536L583.5834907407216 397.3333571376536Q583.5834907407216 380.78867628658975 591.4728524428492 351.1971869248876ZM696.9962566981684 412.2439954355259L696.9962566981684 412.2439954355259Q678.6132779747642 412.2439954355259 678.6132779747642 377.8525060738238L678.6132779747642 377.8525060738238Q678.6132779747642 359.1120805419089 683.2090226556153 343.8439954355259L683.2090226556153 343.8439954355259Q690.3834907407216 320.3291018185046 699.3962566981685 320.3291018185046L699.3962566981685 320.3291018185046Q704.7068949960407 320.3291018185046 707.8473205279557 327.4780379887174L707.8473205279557 327.4780379887174Q710.426043932211 332.9929316057387 710.2217886130619 338.3291018185046L710.2217886130619 338.3291018185046Q710.2217886130619 345.6822933078663 705.8302992513599 364.2439954355259L705.8302992513599 364.2439954355259Q701.5920013790195 380.4312294780791 701.5920013790195 384.28654862701524Q701.5920013790195 388.1418677759514 703.5324269109343 389.6227188397812Q705.4473205279556 391.103569903611 708.1281715917854 391.103569903611Q710.7834907407215 391.103569903611 714.817533293913 387.60569756318546Q718.8771077619982 384.10782522275997 722.9111503151897 379.971655009994Q726.9707247832747 375.83548479722805 730.3664694641258 372.3376124568025Q733.7622141449768 368.83974011637696 735.0388098896577 368.83974011637696L735.0388098896577 368.83974011637696Q737.617533293913 368.83974011637696 737.617533293913 375.0950592653131L737.617533293913 375.0950592653131Q737.617533293913 387.9631443716961 724.6728524428491 400.19293160573864Q711.7026396768919 412.4227188397812 696.9962566981684 412.2439954355259ZM704.5281715917855 305.4184635206323L704.5281715917855 305.4184635206323Q699.5749801024236 298.0652720312706 699.5749801024236 289.61420820148334Q699.5749801024236 281.16314437169615 702.23029925136 275.54612309510037Q704.9111503151897 269.9546337333983 707.2856184002961 267.27378266956845Q709.685618400296 264.6184635206323 712.8005120173174 264.6184635206323L712.8005120173174 264.6184635206323Q717.9579588258279 264.6184635206323 722.1707247832747 272.2525060738238Q726.4090226556151 279.88654862701526 726.4090226556151 285.0184635206323L726.4090226556151 285.0184635206323Q726.4090226556151 294.59293160573867 719.6941290385938 300.0056975631855Q712.9792354215725 305.4184635206323 704.5281715917855 305.4184635206323ZM752.885618400296 319.94612309510035L752.885618400296 319.94612309510035Q759.4983843577428 319.94612309510035 765.3707247832748 332.63548479722806L765.3707247832748 332.63548479722806Q774.0260439322109 323.6227188397812 786.7920013790196 323.6227188397812Q799.5834907407215 323.6227188397812 806.0175332939131 329.239740116377Q812.4515758471047 334.8312294780791 812.4515758471047 345.0439954355259Q812.4515758471047 355.25676139297275 809.7707247832749 365.7248464993557Q807.1154056343386 376.1929316057387 805.9154056343385 380.7120805419089Q804.7154056343385 385.2056975631855 804.7154056343385 388.1418677759514Q804.7154056343385 391.103569903611 806.7324269109344 391.103569903611L806.7324269109344 391.103569903611Q809.489873719445 391.103569903611 813.5494481875302 387.60569756318546Q817.5834907407215 384.10782522275997 821.6430652088067 379.971655009994Q825.6771077619982 375.83548479722805 829.0728524428492 372.3376124568025Q832.4685971237003 368.83974011637696 833.7707247832747 368.83974011637696L833.7707247832747 368.83974011637696Q836.3494481875301 368.83974011637696 836.3494481875301 375.0950592653131L836.3494481875301 375.0950592653131Q836.3494481875301 387.9631443716961 823.6600864854025 399.9120805419089L823.6600864854025 399.9120805419089Q802.3409375492323 412.4227188397812 796.4430652088066 412.4227188397812L796.4430652088066 412.4227188397812Q795.9068949960407 412.4227188397812 795.7026396768919 412.2439954355259L795.7026396768919 412.2439954355259Q780.9962566981684 412.2439954355259 780.9962566981684 388.703569903611L780.9962566981684 388.703569903611Q780.9962566981684 378.59293160573867 782.9366822300832 370.1418677759515Q784.8771077619982 361.69080394616424 785.7962566981683 357.8099528823344Q786.7154056343385 353.9546337333983 786.7154056343385 349.92059118020677L786.7154056343385 349.92059118020677Q786.7154056343385 343.30782522275996 779.0813630811471 343.30782522275996Q771.4473205279556 343.30782522275996 764.553703506679 354.59293160573867Q757.6600864854023 365.903569903611 755.2600864854024 378.0312294780791L755.2600864854024 378.0312294780791L755.2600864854024 379.3333571376536Q755.2600864854024 385.58867628658976 757.2005120173172 392.20144224403657Q759.1409375492323 398.8142082014833 759.1409375492323 401.3929316057387L759.1409375492323 401.3929316057387Q759.1409375492323 407.64825075467485 743.5154056343387 413.69931458446206L743.5154056343387 413.69931458446206Q741.1154056343386 414.6184635206323 739.2771077619981 414.6184635206323L739.2771077619981 414.6184635206323Q734.6813630811472 414.6184635206323 732.9451928683812 409.8439954355259Q731.1834907407216 405.06952735041955 731.1834907407216 394.9588890525472L731.1834907407216 394.9588890525472Q731.1834907407216 368.83974011637696 733.2005120173172 357.27378266956845L733.2005120173172 357.27378266956845Q735.9579588258279 339.98867628658974 745.7111503151897 325.103569903611L745.7111503151897 325.103569903611Q749.0302992513599 319.94612309510035 752.885618400296 319.94612309510035ZM940.0090226556152 368.30356990361105L940.0090226556152 368.30356990361105Q943.3281715917852 368.30356990361105 943.3281715917852 376.75463373339824L943.3281715917852 376.75463373339824Q943.3281715917852 381.35037841424935 939.4728524428493 387.88654862701526Q935.6175332939132 394.3971869248876 929.4388098896578 399.83548479722805Q923.2856184002961 405.2482507546748 915.753703506679 408.7461230951004Q908.2217886130619 412.2439954355259 901.0473205279555 412.2439954355259L901.0473205279555 412.2439954355259Q890.9366822300832 412.2439954355259 887.821788613062 395.69931458446206L887.821788613062 395.69931458446206Q876.7920013790196 413.16314437169615 855.0898737194449 413.16314437169615L855.0898737194449 413.16314437169615Q841.8643418045514 413.16314437169615 833.94944818753 405.06952735041955Q826.0345545705087 396.97591032914295 826.2388098896578 385.3844209674408L826.2388098896578 385.3844209674408Q826.2388098896578 354.13335713765355 846.9962566981684 336.13335713765355L846.9962566981684 336.13335713765355Q861.3451928683811 323.80144224403654 876.7920013790196 323.80144224403654L876.7920013790196 323.80144224403654Q883.7622141449768 323.80144224403654 887.821788613062 324.9248464993557L887.821788613062 324.9248464993557L892.0345545705087 326.02271883978125Q899.5664694641258 290.5333571376535 909.4983843577428 278.5844209674408L909.4983843577428 278.5844209674408Q912.817533293913 274.5503784142493 916.1111503151895 274.5503784142493L916.1111503151895 274.5503784142493Q921.4473205279556 274.5503784142493 926.0430652088068 281.903569903611L926.0430652088068 281.903569903611Q930.1026396768917 287.9546337333983 930.1026396768917 292.371655009994Q930.1026396768917 296.78867628658975 928.8005120173174 301.02697415893016Q927.5239162726365 305.239740116377 925.5834907407217 308.83974011637696Q923.6685971237004 312.41420820148335 921.2685971237003 315.8099528823344Q918.8685971237004 319.2056975631855 916.494129038594 322.703569903611L916.494129038594 322.703569903611Q911.1579588258279 342.56739969084504 908.5792354215727 367.2056975631855L908.5792354215727 367.2056975631855Q907.8388098896577 374.17591032914294 907.8388098896577 378.41420820148335L907.8388098896577 378.41420820148335Q907.8388098896577 391.103569903611 912.0771077619983 391.103569903611L912.0771077619983 391.103569903611Q916.8515758471045 391.103569903611 935.2345545705087 371.98016564829186L935.2345545705087 371.98016564829186Q938.553703506679 368.30356990361105 940.0090226556152 368.30356990361105ZM853.2515758471046 379.3333571376536L853.2515758471046 379.3333571376536Q853.2515758471046 393.4780379887174 863.7196609534875 393.4780379887174L863.7196609534875 393.4780379887174Q869.9749801024237 393.4780379887174 876.3324269109343 388.703569903611Q882.6643418045513 383.92910181850465 886.1622141449769 372.7205911802068L886.1622141449769 372.7205911802068Q886.5196609534875 356.17591032914294 890.0175332939131 336.31208054190887L890.0175332939131 336.31208054190887Q875.3111503151896 339.2482507546748 864.2813630811471 350.66101671212164Q853.2515758471046 362.0482507546749 853.2515758471046 379.3333571376536ZM956.1962566981684 412.2439954355259L956.1962566981684 412.2439954355259Q937.813277974764 412.2439954355259 937.813277974764 377.8525060738238L937.813277974764 377.8525060738238Q937.813277974764 359.1120805419089 942.4090226556151 343.8439954355259L942.4090226556151 343.8439954355259Q949.5834907407217 320.3291018185046 958.5962566981683 320.3291018185046L958.5962566981683 320.3291018185046Q963.9068949960407 320.3291018185046 967.0473205279558 327.4780379887174L967.0473205279558 327.4780379887174Q969.626043932211 332.9929316057387 969.421788613062 338.3291018185046L969.421788613062 338.3291018185046Q969.421788613062 345.6822933078663 965.0302992513599 364.2439954355259L965.0302992513599 364.2439954355259Q960.7920013790193 380.4312294780791 960.7920013790193 384.28654862701524Q960.7920013790193 388.1418677759514 962.7324269109344 389.6227188397812Q964.6473205279557 391.103569903611 967.3281715917855 391.103569903611Q969.9834907407215 391.103569903611 974.0175332939131 387.60569756318546Q978.0771077619983 384.10782522275997 982.1111503151895 379.971655009994Q986.1707247832747 375.83548479722805 989.5664694641258 372.3376124568025Q992.9622141449769 368.83974011637696 994.2388098896578 368.83974011637696L994.2388098896578 368.83974011637696Q996.817533293913 368.83974011637696 996.817533293913 375.0950592653131L996.817533293913 375.0950592653131Q996.817533293913 387.9631443716961 983.8728524428492 400.19293160573864Q970.9026396768919 412.4227188397812 956.1962566981684 412.2439954355259ZM963.7281715917853 305.4184635206323L963.7281715917853 305.4184635206323Q958.7749801024237 298.0652720312706 958.7749801024237 289.61420820148334Q958.7749801024237 281.16314437169615 961.4302992513598 275.54612309510037Q964.1111503151895 269.9546337333983 966.485618400296 267.27378266956845Q968.885618400296 264.6184635206323 972.0005120173174 264.6184635206323L972.0005120173174 264.6184635206323Q977.1579588258279 264.6184635206323 981.3707247832748 272.2525060738238Q985.6090226556151 279.88654862701526 985.6090226556151 285.0184635206323L985.6090226556151 285.0184635206323Q985.6090226556151 294.59293160573867 978.8941290385939 300.0056975631855Q972.1792354215726 305.4184635206323 963.7281715917853 305.4184635206323ZM995.821788613062 401.6737826695685Q993.7026396768919 396.7971869248876 992.7834907407215 390.26101671212166Q991.8643418045514 383.7503784142493 991.8643418045514 371.98016564829186Q991.8643418045514 360.20995288233445 996.2813630811471 340.16739969084506L996.2813630811471 340.16739969084506L988.0090226556152 340.16739969084506Q985.7877460598705 340.16739969084506 985.7877460598705 338.3291018185046L985.7877460598705 338.3291018185046Q985.7877460598705 333.9120805419089 986.6302992513598 331.07803798871737Q987.4473205279556 328.2184635206323 990.5622141449768 324.54186777595146L990.5622141449768 324.54186777595146L994.9792354215728 324.54186777595146Q997.557958825828 324.54186777595146 1000.494129038594 324.36314437169614L1000.494129038594 324.36314437169614Q1009.3281715917852 296.0482507546748 1018.5196609534875 296.0482507546748L1018.5196609534875 296.0482507546748Q1025.8728524428493 296.22697415893015 1028.809022655615 305.4184635206323L1028.809022655615 305.4184635206323Q1029.5494481875298 307.9971869248876 1030.4685971237004 310.93335713765356L1030.4685971237004 310.93335713765356L1022.9366822300832 324.1844209674408Q1035.8047673364663 324.54186777595146 1039.2005120173171 324.54186777595146Q1042.5962566981684 324.54186777595146 1042.877107761998 325.18016564829185Q1043.1579588258278 325.8439954355259 1043.1579588258278 327.12059118020676L1043.1579588258278 327.12059118020676Q1043.1579588258278 330.439740116377 1041.5749801024235 335.3929316057387Q1040.017533293913 340.3461230951004 1038.0005120173173 340.16739969084506L1038.0005120173173 340.16739969084506L1019.617533293913 339.2482507546748Q1015.7622141449768 361.69080394616424 1015.7622141449768 376.3971869248876Q1015.7622141449768 391.103569903611 1019.9749801024237 391.103569903611L1019.9749801024237 391.103569903611Q1023.4728524428493 391.103569903611 1032.6643418045514 385.30782522275996Q1041.8558311662537 379.51208054190886 1045.9154056343386 374.17591032914294Q1049.94944818753 368.83974011637696 1052.5281715917854 368.83974011637696L1052.5281715917854 368.83974011637696Q1055.1068949960409 368.83974011637696 1055.1068949960409 375.0950592653131Q1055.1068949960409 381.35037841424935 1050.6898737194451 387.88654862701526Q1046.2728524428494 394.3971869248876 1039.5579588258279 399.83548479722805Q1032.8430652088068 405.2482507546748 1024.672852442849 408.7461230951004Q1016.5026396768918 412.2439954355259 1010.426043932211 412.2439954355259Q1004.3494481875301 412.2439954355259 1001.1324269109344 409.3844209674408Q997.9154056343385 406.5248464993557 995.821788613062 401.6737826695685Z " fill="#2cb1bc" transform="matrix(0.8292998773462241,0,0,0.8292998773462243,0,18.354463575210644)"/></g></svg>